<svg width="1485" height="913" viewBox="0 0 1485 913" fill="none" xmlns="http://www.w3.org/2000/svg">
<g clip-path="url(#clip0)">
<path opacity="0.1" d="M1484.33 586.398C1484.35 611.135 1481.36 635.782 1475.42 659.794C1473.42 667.885 1471.09 675.808 1468.45 683.562C1465.21 693.134 1461.46 702.524 1457.21 711.691C1455.06 716.328 1452.8 720.874 1450.41 725.326C1450.45 750.693 1445.23 775.792 1435.08 799.037C1416.72 840.744 1383.99 874.466 1342.85 894.059C1317.13 906.331 1289.02 912.785 1260.52 912.962H281.776C238.23 913.055 195.435 901.615 157.744 879.806L157.164 879.478C151.796 876.336 146.562 873.009 141.462 869.497C129.988 861.57 119.207 852.683 109.238 842.931C95.7436 829.745 83.853 815.011 73.8126 799.037C50.231 761.593 37.7387 718.235 37.7825 673.985C13.9011 632.082 -0.0244141 581.887 -0.0244141 527.949C-0.0244141 459.896 22.1053 397.817 58.4629 350.823C66.0428 341.005 74.3457 331.767 83.3021 323.186C92.1393 314.695 101.638 306.92 111.708 299.935C119.764 294.341 128.185 289.288 136.912 284.812C140.554 282.96 144.209 281.208 147.927 279.582C151.191 278.133 154.493 276.785 157.832 275.512C161.84 273.991 165.898 272.592 170.006 271.315C174.114 270.038 178.168 268.921 182.167 267.963C188.048 266.526 194.03 265.359 200.113 264.46C205.154 263.716 210.195 263.199 215.236 262.809C219.243 262.506 223.289 262.342 227.359 262.292H229.565C234.051 262.292 238.512 262.468 242.936 262.771C243.402 261.838 243.906 260.893 244.372 259.973C246.137 256.608 247.964 253.256 249.804 249.98C249.8 249.95 249.8 249.921 249.804 249.891C250.119 249.312 250.434 248.745 250.762 248.19C252.249 245.506 253.799 242.847 255.387 240.213C256.118 238.953 256.836 237.768 257.58 236.583C257.737 236.289 257.909 236.003 258.096 235.726C258.852 234.466 259.621 233.206 260.402 231.946C264.292 225.729 268.338 219.621 272.539 213.622L273.61 212.084C274.265 211.152 274.87 210.244 275.601 209.312C277.34 206.88 279.13 204.435 280.932 202.04C282.192 200.326 283.452 198.625 284.813 196.999C288.09 192.799 291.45 188.598 294.895 184.397C298.34 180.196 301.919 176.05 305.632 171.959C306.136 171.392 306.64 170.837 307.17 170.283L312.551 164.41C312.816 164.133 313.042 163.881 313.294 163.629C313.937 162.935 314.555 162.242 315.248 161.574C318.134 158.512 321.095 155.513 324.069 152.526C339.205 137.45 355.33 123.401 372.336 110.472C373.004 109.943 373.685 109.439 374.353 108.934C377.554 106.527 380.805 104.146 384.056 101.802C401.94 88.9717 420.635 77.3113 440.023 66.8931C441.359 66.1244 442.72 65.4061 444.094 64.7003C461.476 55.5046 479.352 47.2753 497.641 40.0502C507.61 36.1057 517.805 32.4006 528.063 29.0106C534.894 26.7673 541.749 24.6376 548.693 22.6338C559.548 19.5084 570.478 16.7065 581.484 14.228C613.909 6.95254 646.896 2.45819 680.085 0.793968C690.167 0.281474 700.362 0.0168284 710.671 2.5268e-05C760.412 -0.0658268 809.96 6.2017 858.118 18.6514C858.616 19.4039 859.297 20.0174 860.097 20.434C860.897 20.8507 861.79 21.0569 862.692 21.0333H866.927C868.767 21.5374 870.594 22.0415 872.434 22.5708C882.709 25.5281 892.837 28.7585 902.818 32.262L905.339 33.1693C929.973 41.9291 953.942 52.4585 977.058 64.6751C997.896 75.6612 1017.96 88.0571 1037.11 101.776C1040.06 103.894 1042.96 106.028 1045.83 108.178C1049.31 105.952 1052.84 103.818 1056.44 101.776C1070.33 93.8676 1085.08 87.5798 1100.4 83.0367C1132.43 73.5575 1166.32 72.2319 1199 79.1804C1240.9 88.065 1278.83 110.119 1309.47 141.486C1321.94 154.32 1333.05 168.418 1342.6 183.553C1343.29 184.637 1343.99 185.733 1344.66 186.842C1352.87 200.237 1359.92 214.306 1365.75 228.896C1365.97 229.438 1366.18 229.942 1366.37 230.471C1371.75 244.134 1376.09 258.183 1379.35 272.5C1379.5 273.231 1379.68 273.949 1379.83 274.68C1382.88 288.535 1384.95 302.588 1386.03 316.734C1386.03 317.238 1386.03 317.755 1386.13 318.284C1386.66 325.602 1386.93 332.995 1386.94 340.464C1386.94 347.143 1386.71 353.772 1386.29 360.351C1386.29 361.069 1386.19 361.813 1386.13 362.556C1386.02 364.459 1385.85 366.337 1385.69 368.252C1395.31 376.016 1404.32 384.515 1412.63 393.671C1416.3 397.679 1419.86 401.838 1423.29 406.148C1433.76 419.265 1442.96 433.346 1450.77 448.201C1472.08 488.428 1484.33 535.75 1484.33 586.398Z" fill="#009877"/>
<path opacity="0.1" d="M1341.92 889.396C1341.92 898.003 1312.27 906.069 1260.52 913H281.775C238.229 913.093 195.435 901.653 157.743 879.843L157.164 879.516C172.034 874.097 198.877 869.043 235.411 864.481L237.05 864.28C253.433 862.276 271.744 860.373 291.756 858.571C292.26 858.571 292.777 858.495 293.281 858.432C309.16 857.021 326.051 855.697 343.955 854.462C344.522 854.462 345.077 854.362 345.644 854.336C352.55 853.841 359.599 853.37 366.791 852.925L369.563 852.748C421.926 849.497 481.446 846.901 545.995 845.187H546.071C555.111 844.935 564.248 844.712 573.481 844.519C583.748 844.276 594.141 844.061 604.659 843.876C612.687 843.7 620.815 843.574 628.969 843.448H629.158C665.944 842.893 703.953 842.616 742.819 842.616C838.924 842.616 929.761 844.368 1010.25 847.519H1010.48C1022.85 847.997 1035 848.527 1046.85 849.069L1056.93 849.547C1070.3 850.186 1083.32 850.871 1096 851.602C1245.08 860.083 1341.92 873.857 1341.92 889.396Z" fill="#009877"/>
<g opacity="0.2">
<path opacity="0.2" d="M857.311 836.831C857.271 838.19 857.115 839.544 856.845 840.877C848.074 839.482 839.252 838.222 830.38 837.096C830.38 836.743 830.38 836.378 830.38 836.012C830.462 832.233 831.549 828.544 833.53 825.325C836.127 821.217 840.071 818.646 844.419 818.785C848.767 818.923 852.535 821.734 854.866 825.981C856.63 829.316 857.473 833.061 857.311 836.831V836.831Z" fill="#3F3D56"/>
<path opacity="0.2" d="M858.034 815.297C858.342 805.55 852.558 797.459 845.114 797.224C837.671 796.988 831.387 804.699 831.079 814.445C830.771 824.191 836.555 832.282 843.999 832.518C851.442 832.753 857.726 825.043 858.034 815.297Z" fill="#3F3D56"/>
<path opacity="0.2" d="M858.722 793.721C859.03 783.975 853.246 775.883 845.802 775.648C838.359 775.413 832.075 783.123 831.767 792.869C831.459 802.615 837.243 810.707 844.687 810.942C852.13 811.177 858.414 803.467 858.722 793.721Z" fill="#3F3D56"/>
<path opacity="0.2" d="M859.397 772.145C859.705 762.399 853.92 754.307 846.477 754.072C839.033 753.837 832.749 761.547 832.441 771.293C832.133 781.039 837.918 789.131 845.362 789.366C852.805 789.601 859.089 781.891 859.397 772.145Z" fill="#3F3D56"/>
<path opacity="0.2" d="M860.072 750.569C860.38 740.823 854.595 732.731 847.152 732.496C839.708 732.261 833.424 739.971 833.116 749.717C832.808 759.463 838.593 767.555 846.036 767.79C853.48 768.025 859.764 760.315 860.072 750.569Z" fill="#3F3D56"/>
<path opacity="0.2" d="M800.727 600.866C798.952 598.463 797.351 595.936 795.938 593.304L831.552 588.604L793.216 587.684C789.795 579.569 788.065 570.842 788.132 562.036C788.199 553.229 790.062 544.53 793.606 536.468L844.167 564.76L797.853 528.415C802.525 520.858 808.705 514.346 816.007 509.286C823.309 504.225 831.576 500.724 840.292 499.001C849.007 497.279 857.985 497.372 866.663 499.275C875.341 501.178 883.533 504.85 890.728 510.062C897.924 515.273 903.967 521.912 908.481 529.564C912.995 537.216 915.883 545.716 916.964 554.535C918.046 563.353 917.297 572.299 914.766 580.815C912.234 589.331 907.974 597.233 902.251 604.029C905.011 607.767 907.356 611.794 909.245 616.039L862.503 638.471L912.068 623.562C915.189 633.862 915.692 644.777 913.532 655.32C911.371 665.862 906.614 675.699 899.693 683.94C906.889 693.704 911.192 705.295 912.11 717.389C913.029 729.483 910.525 741.591 904.886 752.33C899.246 763.068 890.699 772.002 880.221 778.111C869.743 784.22 857.757 787.257 845.635 786.875C833.512 786.493 821.741 782.707 811.669 775.95C801.596 769.193 793.629 759.738 788.677 748.666C783.726 737.594 781.99 725.352 783.668 713.339C785.347 701.327 790.371 690.03 798.168 680.739C789.571 669.071 785.146 654.852 785.603 640.366C786.06 625.88 791.373 611.968 800.689 600.866H800.727Z" fill="#009877"/>
<path opacity="0.1" d="M914.815 644.445C914.374 658.939 909.044 672.858 899.692 683.941C906.888 693.704 911.191 705.296 912.11 717.39C913.028 729.484 910.524 741.592 904.885 752.33C899.246 763.068 890.698 772.002 880.22 778.111C869.742 784.221 857.757 787.258 845.634 786.875C833.511 786.493 821.741 782.707 811.668 775.95C801.596 769.193 793.628 759.738 788.677 748.666C783.725 737.594 781.989 725.352 783.668 713.34C785.346 701.328 790.371 690.03 798.168 680.74C789.888 669.486 915.042 637.199 914.815 644.445Z" fill="black"/>
</g>
<g opacity="0.2">
<path opacity="0.2" d="M665.756 836.831C665.716 838.19 665.56 839.544 665.29 840.877C656.518 839.482 647.697 838.222 638.825 837.096C638.825 836.743 638.825 836.378 638.825 836.012C638.907 832.233 639.994 828.544 641.975 825.325C644.571 821.217 648.516 818.646 652.864 818.785C657.212 818.923 660.98 821.734 663.311 825.981C665.074 829.316 665.918 833.061 665.756 836.831V836.831Z" fill="#3F3D56"/>
<path opacity="0.2" d="M666.466 815.301C666.774 805.555 660.989 797.464 653.546 797.229C646.102 796.993 639.818 804.703 639.51 814.45C639.202 824.196 644.987 832.287 652.43 832.523C659.874 832.758 666.158 825.048 666.466 815.301Z" fill="#3F3D56"/>
<path opacity="0.2" d="M667.153 793.726C667.461 783.98 661.676 775.888 654.233 775.653C646.789 775.418 640.505 783.128 640.197 792.874C639.889 802.62 645.674 810.712 653.117 810.947C660.561 811.182 666.845 803.472 667.153 793.726Z" fill="#3F3D56"/>
<path opacity="0.2" d="M667.828 772.151C668.136 762.404 662.352 754.313 654.908 754.078C647.464 753.842 641.181 761.553 640.873 771.299C640.565 781.045 646.349 789.136 653.793 789.372C661.236 789.607 667.52 781.897 667.828 772.151Z" fill="#3F3D56"/>
<path opacity="0.2" d="M668.503 750.574C668.811 740.828 663.026 732.737 655.583 732.501C648.139 732.266 641.855 739.976 641.547 749.723C641.239 759.469 647.024 767.56 654.467 767.796C661.911 768.031 668.195 760.321 668.503 750.574Z" fill="#3F3D56"/>
<path opacity="0.2" d="M609.171 600.866C607.396 598.463 605.796 595.936 604.382 593.304L639.996 588.604L601.66 587.684C598.239 579.569 596.509 570.842 596.576 562.036C596.643 553.229 598.506 544.53 602.051 536.468L652.611 564.76L606.298 528.415C610.97 520.858 617.15 514.346 624.452 509.286C631.753 504.225 640.02 500.724 648.736 499.001C657.452 497.279 666.429 497.372 675.107 499.275C683.785 501.178 691.977 504.85 699.173 510.062C706.368 515.273 712.411 521.912 716.925 529.564C721.44 537.216 724.328 545.716 725.409 554.535C726.49 563.353 725.742 572.299 723.21 580.815C720.678 589.331 716.418 597.233 710.695 604.029C713.456 607.767 715.801 611.794 717.69 616.039L670.947 638.471L720.512 623.562C723.634 633.862 724.137 644.777 721.976 655.32C719.815 665.862 715.058 675.699 708.137 683.94C715.333 693.704 719.636 705.295 720.555 717.389C721.473 729.483 718.969 741.591 713.33 752.33C707.691 763.068 699.143 772.002 688.665 778.111C678.187 784.22 666.202 787.257 654.079 786.875C641.956 786.493 630.186 782.707 620.113 775.95C610.041 769.193 602.073 759.738 597.122 748.666C592.17 737.594 590.434 725.352 592.113 713.339C593.791 701.327 598.816 690.03 606.613 680.739C598.015 669.071 593.59 654.852 594.047 640.366C594.504 625.88 599.817 611.968 609.133 600.866H609.171Z" fill="#009877"/>
<path opacity="0.1" d="M723.26 644.445C722.819 658.939 717.489 672.858 708.137 683.941C715.333 693.704 719.636 705.296 720.555 717.39C721.473 729.484 718.969 741.592 713.33 752.33C707.691 763.068 699.143 772.002 688.665 778.111C678.187 784.221 666.202 787.258 654.079 786.875C641.956 786.493 630.186 782.707 620.113 775.95C610.041 769.193 602.073 759.738 597.122 748.666C592.17 737.594 590.434 725.352 592.113 713.34C593.791 701.328 598.816 690.03 606.613 680.74C598.333 669.486 723.487 637.199 723.26 644.445Z" fill="black"/>
</g>
<g opacity="0.2">
<path opacity="0.2" d="M1189 850.618C1188.91 853.193 1188.6 855.756 1188.08 858.281C1171.2 855.584 1154.19 853.172 1137.06 851.047C1137.06 850.366 1137.06 849.673 1137.06 848.967C1137.22 841.69 1139.31 834.586 1143.13 828.388C1148.17 820.486 1155.73 815.534 1164.09 815.786C1172.44 816.038 1179.72 821.469 1184.25 829.648C1187.67 836.091 1189.31 843.33 1189 850.618V850.618Z" fill="#3F3D56"/>
<path opacity="0.2" d="M1190.37 809.128C1190.97 790.359 1179.83 774.777 1165.49 774.323C1151.15 773.87 1139.05 788.718 1138.45 807.487C1137.86 826.256 1149 841.838 1163.34 842.292C1177.68 842.745 1189.78 827.897 1190.37 809.128Z" fill="#3F3D56"/>
<path opacity="0.2" d="M1191.68 767.59C1192.28 748.821 1181.14 733.238 1166.8 732.785C1152.46 732.332 1140.36 747.18 1139.76 765.949C1139.17 784.718 1150.31 800.3 1164.65 800.753C1178.99 801.207 1191.09 786.359 1191.68 767.59Z" fill="#3F3D56"/>
<path opacity="0.2" d="M1193.01 726.052C1193.6 707.283 1182.46 691.701 1168.12 691.248C1153.78 690.795 1141.68 705.642 1141.09 724.411C1140.49 743.18 1151.64 758.763 1165.97 759.216C1180.31 759.669 1192.41 744.821 1193.01 726.052Z" fill="#3F3D56"/>
<path opacity="0.2" d="M1192.84 682.624C1193.4 663.846 1182.23 648.274 1167.89 647.844C1153.54 647.414 1141.46 662.288 1140.89 681.066C1140.33 699.844 1151.5 715.416 1165.85 715.846C1180.19 716.276 1192.28 701.403 1192.84 682.624Z" fill="#3F3D56"/>
<path opacity="0.2" d="M1080.06 396.356C1076.66 391.729 1073.58 386.874 1070.84 381.825L1139.4 372.777L1065.61 371C1059.02 355.379 1055.69 338.578 1055.81 321.624C1055.94 304.67 1059.52 287.921 1066.35 272.399L1163.7 326.854L1074.55 256.886C1083.56 242.373 1095.47 229.872 1109.53 220.163C1123.58 210.453 1139.49 203.743 1156.25 200.45C1173.02 197.157 1190.28 197.352 1206.97 201.023C1223.65 204.693 1239.4 211.762 1253.24 221.786C1267.07 231.811 1278.69 244.578 1287.37 259.29C1296.06 274.003 1301.62 290.347 1303.71 307.303C1305.8 324.259 1304.38 341.464 1299.53 357.845C1294.68 374.226 1286.5 389.433 1275.52 402.518C1280.83 409.72 1285.34 417.473 1288.99 425.643L1199 468.857L1294.41 440.124C1300.42 459.927 1301.4 480.918 1297.26 501.195C1293.11 521.473 1283.98 540.397 1270.68 556.254C1284.53 575.05 1292.81 597.365 1294.58 620.646C1296.34 643.928 1291.52 667.236 1280.67 687.907C1269.81 708.577 1253.35 725.776 1233.18 737.535C1213.01 749.295 1189.94 755.141 1166.6 754.405C1143.27 753.669 1120.61 746.381 1101.22 733.374C1081.83 720.368 1066.49 702.167 1056.96 680.854C1047.42 659.54 1044.08 635.974 1047.31 612.85C1050.54 589.726 1060.21 567.978 1075.22 550.091C1058.68 527.63 1050.16 500.262 1051.04 472.38C1051.92 444.498 1062.14 417.72 1080.06 396.343V396.356Z" fill="#009877"/>
<path opacity="0.1" d="M1299.72 480.236C1298.89 508.124 1288.68 534.917 1270.73 556.279C1284.58 575.075 1292.86 597.39 1294.63 620.671C1296.39 643.953 1291.57 667.261 1280.72 687.932C1269.86 708.602 1253.41 725.8 1233.23 737.56C1213.06 749.319 1189.99 755.166 1166.65 754.43C1143.32 753.694 1120.66 746.406 1101.27 733.399C1081.88 720.393 1066.54 702.192 1057.01 680.879C1047.47 659.565 1044.13 635.999 1047.36 612.875C1050.59 589.751 1060.26 568.003 1075.27 550.116C1059.21 528.428 1300.16 466.286 1299.72 480.236Z" fill="black"/>
</g>
<path d="M198.89 852.837L212.109 852.799H230.748L254.315 469.966L487.697 80.5165L477.552 69.6281V42.0542L225.153 460.943L198.89 852.837Z" fill="#F1C0C0"/>
<path opacity="0.1" d="M213.521 852.799H230.749L254.315 469.966L487.697 80.5163L477.553 69.6279L236.823 464.131L213.521 852.799Z" fill="black"/>
<path d="M159.936 856.025L764.658 902.301L765.175 902.339L1350.41 866.346L1350.86 866.321V841.608L705.994 829.774L167.989 829.258H164.057L163.629 832.03L159.936 856.025Z" fill="#F1C0C0"/>
<path opacity="0.1" d="M159.936 856.025L764.658 902.301L765.175 902.339L1350.41 866.346L1350.86 865.868V842.125H1350.34L764.658 861.684L167.989 829.258H167.901L166.842 829.951L163.629 832.03L159.936 856.025Z" fill="black"/>
<path opacity="0.1" d="M159.936 856.025L764.658 902.301V861.683L166.842 829.951L163.629 832.03L159.936 856.025Z" fill="black"/>
<path d="M477.477 69.1111L744.079 355.259L735.837 858.596L758.483 861.331L758.861 861.381H781.507L784.217 376.872L1283.43 543.626L1291.85 840.537L1310.07 842.578L1316.25 843.271L1301.96 523.034L780.096 339.821L493.948 42.3438H477.477V69.1111Z" fill="#F1C0C0"/>
<path opacity="0.1" d="M782.163 367.61L784.217 376.873L1283.43 543.626L1291.85 840.537L1310.07 842.579L1295.78 537.451L782.163 367.61Z" fill="black"/>
<path opacity="0.1" d="M477.477 69.1111L744.079 355.259L735.837 858.596L758.483 861.331L764.658 338.788L477.477 42.3438V69.1111Z" fill="black"/>
<path d="M783.133 569.612L966.232 605.667L966.295 605.68L1286.99 668.855L1301.67 662.97L1301.62 661.936L1300.66 641.458L783.322 536.921L783.133 569.612Z" fill="#F1C0C0"/>
<path opacity="0.1" d="M966.295 605.68L1286.99 668.855L1301.67 662.97L1301.62 661.936L966.295 605.68Z" fill="black"/>
<path d="M978.558 441.787L983.51 714.426L986.069 854.299L1008.61 853.543L1022.8 853.064L1018.39 445.732L1008.61 442.48L1006.47 441.787H978.558Z" fill="#F1C0C0"/>
<path opacity="0.1" d="M978.759 441.724V441.787L983.51 714.425L986.068 854.298L1008.61 853.542V441.724H978.759Z" fill="black"/>
<path d="M625.402 511.415C626.725 512.133 627.989 512.955 629.183 513.872C630.595 515.108 631.863 516.499 632.964 518.018C638.37 525.013 643.361 533.141 642.831 541.963C642.843 543.246 642.6 544.519 642.118 545.709C641.636 546.898 640.923 547.981 640.021 548.894C637.79 550.797 634.589 550.885 631.666 550.885C628.49 550.885 625.15 550.885 622.403 549.247C619.656 547.609 617.362 544.42 614.111 544.496C613.652 544.572 613.183 544.572 612.724 544.496C611.603 544.13 611.376 542.656 610.645 541.723C609.385 540.047 606.726 540.463 604.747 541.194C602.768 541.925 600.576 543.021 598.622 542.177C597.488 541.579 596.561 540.652 595.963 539.518C591.288 531.956 590.292 522.87 589.41 514.086C588.868 508.743 584.735 490.52 596.14 494.666C601.181 496.481 605.894 500.11 610.481 502.769L625.402 511.415Z" fill="#3F3D56"/>
<path d="M614.136 513.217C615.155 513.95 616.389 514.32 617.643 514.27C618.897 514.22 620.098 513.752 621.055 512.94C622.931 511.244 624.127 508.924 624.419 506.412C625.68 506.021 626.322 507.672 627.129 508.68C628.54 510.394 631.414 510.369 632.699 512.196C633.594 513.456 633.392 515.208 634.022 516.632C634.841 518.472 636.87 519.43 638.257 520.917C639.566 522.542 640.511 524.428 641.029 526.449L643.096 532.65C644.085 535.228 644.721 537.929 644.986 540.677C645.117 542.052 644.972 543.438 644.561 544.756C644.15 546.073 643.48 547.296 642.592 548.352C639.819 551.339 635.27 551.654 631.25 551.566C629.907 551.594 628.567 551.437 627.267 551.1C623.701 549.991 621.42 546.399 620.475 542.782C619.53 539.165 619.63 535.372 619.076 531.667C618.477 528.027 617.418 524.479 615.925 521.106C614.816 518.485 611.767 514.578 611.817 511.793C612.724 511.793 613.38 512.625 614.136 513.217Z" fill="#3F3D56"/>
<path d="M618.66 500.451C618.071 498.661 617.728 496.8 617.64 494.919C617.64 491.138 619.366 487.584 621.105 484.207L606.701 486.16C604.962 486.399 603.021 486.752 602.038 488.201C601.665 488.92 601.47 489.717 601.47 490.527C601.47 491.336 601.665 492.134 602.038 492.852C602.76 494.29 603.334 495.797 603.752 497.351C603.785 498.711 603.941 500.065 604.218 501.396C604.666 502.374 605.295 503.259 606.071 504.005C610.192 508.567 613.279 513.948 616.354 519.279C616.266 519.128 625.037 512.335 624.684 510.117C624.483 508.857 621.95 507.344 621.143 506.135C620.029 504.379 619.192 502.462 618.66 500.451V500.451Z" fill="#BE6F72"/>
<path d="M742.163 451.213V463.627L529.599 505.088L518.572 511.767H480.526V504.773L689.372 454.314L742.163 451.213Z" fill="#F1C0C0"/>
<path opacity="0.1" d="M742.163 463.627L529.599 505.089L518.572 511.768H480.526L690.922 466.74L742.163 463.627Z" fill="black"/>
<path d="M571.503 803.599C569.134 800.731 565.865 798.749 562.226 797.975C558.588 797.202 554.795 797.683 551.465 799.339C550.752 799.675 550.123 800.166 549.625 800.776C548.365 802.54 549.171 804.973 549.285 807.153C549.575 812.471 545.34 816.794 541.534 820.511C539.493 822.503 537.413 824.632 536.493 827.342C535.573 830.051 536.254 833.492 538.724 834.903C539.802 835.444 540.975 835.769 542.177 835.861C546.205 836.647 550.336 836.762 554.401 836.201C558.421 835.432 562.366 833.151 564.105 829.446C564.44 828.442 564.996 827.525 565.731 826.762C567.949 825.01 571.351 827.065 573.872 825.817C575.951 824.784 576.039 823.158 576.065 821.015C576.14 815.092 575.258 808.388 571.503 803.599Z" fill="#009877"/>
<path d="M601.748 803.372C603.298 807.456 603.513 811.904 603.714 816.265C603.828 818.785 603.903 821.482 602.542 823.612C601.181 825.742 598.522 826.863 595.976 827.392C590.721 828.476 584.634 827.455 581.244 823.284C578.648 820.096 578.106 815.723 578.585 811.589C578.988 808.199 579.845 804.229 577.413 801.822C576.783 801.18 575.964 800.726 575.384 800.033C574.124 798.495 574.326 796.177 575.006 794.286C575.892 792.478 576.557 790.57 576.985 788.603C577.085 787.67 594.048 789.258 595.611 790.027C597.741 791.073 597.413 792.824 598.056 794.941C598.95 797.89 600.664 800.55 601.748 803.372Z" fill="#009877"/>
<path d="M604.861 622.328C608.188 624.483 609.473 628.717 609.99 632.649C611.414 643.424 608.919 654.312 608.73 665.188C608.553 680.424 612.964 695.938 609.196 710.695C606.94 719.517 608.856 729.599 606.739 738.508C606.108 741.155 604.949 743.65 604.344 746.297C603.084 752.031 604.407 758.029 606.184 763.637C606.751 765.149 607.112 766.73 607.255 768.338C607.17 770.813 606.542 773.24 605.415 775.446L597.854 793.328C597.01 795.332 593.683 795.66 591.553 795.925C587.545 796.403 583.071 796.744 579.883 794.261C576.695 791.778 575.926 787.62 575.434 783.738C574.492 776.287 574.071 768.778 574.174 761.268C574.313 759.308 574.138 757.339 573.658 755.433C572.964 753.278 571.44 751.413 571.024 749.132C570.494 746.183 571.994 743.285 572.548 740.311C572.929 737.594 572.886 734.835 572.422 732.132C571.931 728.099 571.364 724.066 570.721 720.059C569.814 714.451 571.112 708.918 571.981 703.298C572.801 698.017 571.755 692.636 570.721 687.393C570.81 691.648 570.28 695.894 569.146 699.996C568.478 702 567.52 703.915 566.94 705.957C564.357 715.118 569.864 724.734 569.083 734.224C568.717 738.66 566.978 743.045 567.47 747.418C567.81 750.619 569.297 753.556 570.318 756.605C571.339 759.655 571.868 763.146 570.318 765.994C566.222 773.732 569.285 784.255 572.952 792.194C573.696 793.602 574.345 795.059 574.893 796.555C575.976 800.134 575.069 803.977 575.359 807.708C574.303 807.88 573.222 807.81 572.198 807.502C571.174 807.194 570.234 806.657 569.448 805.931C568.894 805.351 568.44 804.671 567.898 804.066C566.384 802.623 564.592 801.503 562.63 800.776C561.479 800.132 560.167 799.83 558.85 799.907C557.465 800.294 556.219 801.068 555.258 802.137C554.012 803.233 552.689 804.24 551.301 805.149C550.71 805.604 550.018 805.911 549.285 806.044C548.916 806.101 548.538 806.041 548.206 805.871C547.873 805.701 547.602 805.431 547.432 805.099C547.353 804.889 547.307 804.668 547.293 804.444C546.825 800.638 546.577 796.809 546.55 792.976C546.55 786.385 538.661 781.848 537.665 775.332C536.871 770.077 538.346 764.721 537.854 759.428C537.615 756.706 536.859 754.034 536.909 751.312C536.909 749.548 537.312 747.822 537.451 746.07C537.567 744.125 537.537 742.175 537.363 740.235L536.972 734.148C536.594 728.137 536.178 721.999 533.809 716.505C530.999 710.089 529.336 703.23 528.894 696.24C528.642 691.829 528.806 687.419 528.302 682.995C527.848 679 526.84 675.03 527.13 671.023C527.369 667.923 528.39 664.923 528.629 661.823C529.121 655.862 526.852 650.065 525.076 644.356C523.299 638.648 521.988 632.321 524.319 626.814C524.653 625.91 525.207 625.104 525.933 624.47C526.826 623.879 527.844 623.499 528.907 623.361C550.529 618.819 572.692 617.406 594.716 619.164C598.306 619.368 601.791 620.455 604.861 622.328Z" fill="#3F3D56"/>
<path d="M533.317 488.478C544.467 488.478 553.506 479.44 553.506 468.289C553.506 457.139 544.467 448.101 533.317 448.101C522.167 448.101 513.128 457.139 513.128 468.289C513.128 479.44 522.167 488.478 533.317 488.478Z" fill="#BE6F72"/>
<path d="M529.411 493.506C529.701 494.66 529.701 495.868 529.411 497.022C529.093 497.829 528.646 498.578 528.088 499.24C526.133 501.761 523.971 504.114 521.623 506.272C522.819 508.944 524.972 511.071 527.659 512.233C530.327 513.369 533.125 514.169 535.989 514.615C537.419 514.991 538.907 515.094 540.375 514.918C541.728 514.578 543.008 513.997 544.156 513.204L555.372 506.487C557.064 505.57 558.631 504.439 560.034 503.122C562.092 501.008 563.256 498.183 563.286 495.233C563.338 494.705 563.195 494.175 562.883 493.746C562.453 493.372 561.913 493.146 561.345 493.103C557.401 492.234 554.288 489.033 552.523 485.403C550.928 481.682 549.896 477.745 549.461 473.721L537.501 480.022C535.725 480.967 533.96 481.912 532.12 482.731C530.948 483.261 528.579 483.702 527.747 484.773C526.159 486.751 528.995 491.124 529.411 493.506Z" fill="#BE6F72"/>
<path d="M521.698 502.605C519.995 504.001 518.666 505.799 517.829 507.835C517.048 510.356 517.829 513.015 518.535 515.51C521.842 526.146 524.369 537.008 526.096 548.011C527.155 555.573 527.545 563.248 528.062 570.897C529.121 586.499 530.658 611.376 532.712 626.877C540.274 627.217 547.646 625.012 555.144 624.205C569.158 622.718 583.588 626.121 597.312 622.945C593.985 609.801 590.658 587.356 587.331 574.224C585.859 569.05 584.838 563.759 584.281 558.408C583.991 554.565 584.168 550.708 584.218 546.839C584.331 539.278 583.916 531.717 583.5 524.155C583.021 515.334 582.542 506.512 580.45 497.879C580.304 496.779 579.789 495.762 578.988 494.994C577.728 494.074 576.09 494.401 574.59 494.603C569.998 495.186 565.35 494.085 561.509 491.503C559.845 490.368 557.615 488.982 556.064 490.242C555.403 491.003 554.967 491.932 554.804 492.927C554.118 494.71 553.06 496.325 551.699 497.666C550.339 499.007 548.708 500.042 546.915 500.702C543.324 502.003 539.563 502.776 535.749 502.996C534.583 503.247 533.366 503.109 532.284 502.605C530.494 501.509 530.368 497.564 528.112 497.3C526.134 497.073 523.034 501.332 521.698 502.605Z" fill="#3F3D56"/>
<path d="M551.515 533.381C546.865 528.932 544.824 522.48 541.434 516.998C539.125 513.311 536.176 510.068 532.725 507.42C530.991 506.274 529.4 504.924 527.987 503.4C526.79 501.925 525.882 499.959 524.068 499.392C523.318 499.229 522.539 499.25 521.8 499.454C521.06 499.659 520.381 500.039 519.821 500.564C518.71 501.623 517.658 502.742 516.67 503.916C511.327 509.449 501.938 510.217 497.704 516.619C496.561 517.977 495.785 519.604 495.448 521.345C494.229 530.663 496.638 540.093 502.177 547.684C503.25 549.444 504.897 550.779 506.84 551.465C506.577 553.815 506.888 556.193 507.748 558.396C510.081 566.372 512.948 574.182 516.33 581.773C515.521 584.743 514.957 587.773 514.641 590.835C513.759 598.535 514.578 606.348 513.746 614.061C513.066 620.362 511.226 626.499 511.163 632.813C511.163 633.821 511.251 635.018 512.121 635.535C512.583 635.773 513.101 635.881 513.62 635.85L529.121 636.316C538.119 636.581 547.205 636.846 556.065 635.182C557.245 635.008 558.389 634.646 559.455 634.111C562.454 632.435 563.45 628.654 563.929 625.289C564.554 620.925 564.803 616.514 564.672 612.107C566.55 618.043 568.781 624.18 574.452 626.751C577.451 628.112 580.879 628.011 584.168 627.923C591.258 627.607 598.323 626.879 605.327 625.743C605.759 625.796 606.197 625.748 606.607 625.602C607.017 625.456 607.386 625.216 607.686 624.901C607.987 624.586 608.209 624.205 608.335 623.789C608.462 623.373 608.489 622.933 608.415 622.504L608.491 615.623C608.642 601.647 605.176 588.289 603.828 574.376C603.399 569.99 603.437 565.554 602.366 561.257C601.925 559.455 601.282 557.69 600.891 555.876C600.555 554.099 600.345 552.301 600.261 550.494L599.278 536.632C598.812 530.217 598.144 524.03 597.653 517.628C597.382 511.394 596.479 505.204 594.956 499.153C593.859 495.372 591.578 491.087 587.634 490.621C585.529 490.381 583.488 491.301 581.484 491.944C576.559 493.495 571.273 493.473 566.361 491.881C564.843 491.282 563.262 490.859 561.648 490.621C560.835 490.51 560.008 490.618 559.25 490.932C558.493 491.247 557.833 491.757 557.338 492.41C556.849 493.395 556.619 494.488 556.67 495.586C556.078 508.176 554.981 521.144 551.515 533.381Z" fill="#009877"/>
<path d="M531.238 533.759C525.428 527.634 519.468 521.396 511.982 517.502C509.033 515.964 505.681 514.805 502.417 515.384C499.153 515.964 496.115 518.8 496.267 522.114C496.367 524.168 497.615 525.983 498.006 527.999C498.459 530.268 497.804 532.687 498.51 534.88C499.083 536.325 499.94 537.641 501.03 538.749L509.953 549.322C513.733 553.733 517.514 558.207 522.379 561.257C527.243 564.307 533.544 565.731 538.888 563.563C542.689 561.796 545.85 558.895 547.936 555.258C550.154 551.729 551.717 547.873 553.796 544.231C557.033 538.412 561.303 533.231 566.399 528.944C563.777 528.264 560.488 527.306 558.837 525.164C558.367 524.483 557.966 523.757 557.64 522.996L555.598 518.585C554.904 518.549 554.21 518.657 553.559 518.902C552.908 519.147 552.316 519.524 551.818 520.009C550.942 521.021 550.004 521.977 549.007 522.87C547.23 524.206 544.823 524.571 543.21 526.096C542.586 526.751 542.021 527.459 541.522 528.214C540.302 529.817 538.753 531.141 536.979 532.098C535.206 533.054 533.248 533.62 531.238 533.759V533.759Z" fill="#3F3D56"/>
<path d="M566.865 507.407C571.238 499.43 571.036 489.865 572.284 480.854C572.419 478.468 573.257 476.175 574.691 474.263C577.211 471.415 581.66 471.377 585.466 471.743C586.588 471.869 587.986 472.398 587.923 473.519C587.835 473.921 587.639 474.292 587.356 474.591C583.668 479.352 581.498 485.113 581.131 491.125C583.109 492.499 586.172 489.676 588.075 491.125C589.335 492.184 588.755 494.276 587.999 495.788C586.243 499.291 584.433 502.769 582.567 506.223C581.079 509.266 579.137 512.066 576.808 514.527C575.208 516.065 573.33 517.275 571.704 518.787C567.924 522.328 565.643 527.331 561.736 530.784C561.406 531.142 560.959 531.37 560.476 531.427C559.979 531.392 559.51 531.182 559.152 530.835C557.201 529.247 555.582 527.29 554.389 525.076C552.902 522.328 553.128 521.522 555.473 519.581C559.858 516.115 564.13 512.398 566.865 507.407Z" fill="#BE6F72"/>
<path d="M523.929 528.339C524.685 528.806 525.618 529.335 526.449 528.944C526.789 528.739 527.078 528.459 527.294 528.125C528.734 526.202 529.936 524.112 530.873 521.9C531.034 521.587 531.124 521.243 531.137 520.891C531.137 520.085 530.419 519.492 529.751 519.026C526.172 516.745 522.324 514.917 518.296 513.582C514.969 512.322 511.49 511.225 507.962 511.54C506.636 511.629 505.342 511.986 504.157 512.588C502.972 513.19 501.922 514.025 501.068 515.044C498.548 518.283 502.77 519.266 505.416 520.438C511.541 523.223 518.17 524.836 523.929 528.339Z" fill="#009877"/>
<path opacity="0.1" d="M519.959 549.763C519.916 550.051 519.942 550.344 520.034 550.62C520.126 550.896 520.282 551.146 520.488 551.351C520.854 549.561 520.375 547.671 520.753 545.869C521.307 543.159 523.941 541.118 524.168 538.396C519.341 537.45 519.997 546.839 519.959 549.763Z" fill="black"/>
<path opacity="0.2" d="M742.163 451.213V463.627L690.922 466.739L689.372 454.314L742.163 451.213Z" fill="black"/>
<path d="M515.145 471.289C518.346 468.68 516.493 463.21 518.661 459.707C519.921 457.791 522.051 456.783 524.143 455.926C526.668 454.745 529.373 453.995 532.145 453.708C533.534 453.575 534.935 453.756 536.244 454.238C537.553 454.72 538.737 455.491 539.707 456.493C540.526 457.426 541.08 458.56 541.849 459.531C542.801 460.663 544.042 461.516 545.44 462C546.838 462.483 548.341 462.579 549.789 462.278C551.465 461.9 553.204 460.627 553.091 458.913C552.901 457.871 552.369 456.921 551.578 456.216L547.974 452.221C543.878 447.684 539.329 442.87 533.317 441.736C529.133 440.942 524.849 442.064 520.816 443.412C519.19 443.954 517.363 444.761 516.909 446.412C516.607 447.546 517.06 448.781 516.796 449.928C516.279 452.209 513.355 452.977 511.994 454.893C510.633 456.808 511.049 459.077 510.658 461.194C510.268 463.311 509.134 465.378 508.995 467.571C508.907 468.894 509.575 471.352 511.062 471.83C512.549 472.309 514.225 469.713 515.145 471.289Z" fill="#3F3D56"/>
<path d="M551.868 457.099C550.806 451.554 548.515 446.318 545.164 441.775C542.184 437.529 538.039 434.238 533.229 432.298C530.825 431.358 528.239 430.975 525.666 431.178C523.092 431.381 520.598 432.165 518.371 433.47C515.065 435.83 512.492 439.075 510.948 442.833C507.684 449.865 506.475 458.46 510.268 465.215C511.78 463.375 514.376 464.207 516.67 463.539C519.543 462.72 521.975 460.804 524.71 459.607C532.965 455.965 543.047 458.914 551.868 457.099Z" fill="#FED253"/>
<path opacity="0.1" d="M512.196 456.708C511.906 454.439 511.717 451.805 513.33 450.192C513.41 450.093 513.512 450.015 513.628 449.962C513.744 449.91 513.871 449.885 513.998 449.89C514.11 449.926 514.214 449.985 514.303 450.063C514.392 450.141 514.464 450.237 514.514 450.343C515.446 451.813 516.239 453.365 516.884 454.981C515.944 454.765 514.962 454.835 514.063 455.183C513.164 455.532 512.391 456.142 511.843 456.934" fill="black"/>
<path opacity="0.1" d="M541.647 450.306L541.194 445.807C541.121 445.436 541.151 445.052 541.282 444.698C541.472 444.401 541.765 444.185 542.105 444.092C542.445 443.999 542.807 444.035 543.122 444.194C543.742 444.537 544.253 445.048 544.596 445.668C545.645 447.279 546.516 448.998 547.192 450.797C545.163 450.406 543.075 450.432 541.055 450.873" fill="black"/>
<path opacity="0.1" d="M552.927 632.901V643.184L544.244 643.764H498.573V632.901H552.927Z" fill="black"/>
<path d="M552.927 632.901V643.764H498.573L354.176 462.883V454.339H384.447L552.927 632.901Z" fill="#F1C0C0"/>
<path opacity="0.1" d="M552.927 632.901V643.764H498.573L354.176 462.883V454.339H384.447L552.927 632.901Z" fill="black"/>
<path opacity="0.1" d="M552.927 632.901V643.764H498.573L354.176 462.883V454.339L499.354 632.901H552.927Z" fill="black"/>
<path d="M373.104 814.198C373.199 814.709 373.187 815.234 373.07 815.741C372.953 816.247 372.733 816.724 372.423 817.142C372.113 817.559 371.72 817.908 371.269 818.167C370.818 818.426 370.319 818.589 369.802 818.646C366.299 819.831 362.581 821.003 360.098 823.687C357.616 826.372 357.124 831.35 360.098 833.53C361.619 834.447 363.364 834.922 365.139 834.903C370.848 835.294 376.796 835.219 381.976 832.799C385.681 831.085 389.172 828.161 393.242 828.426C395.347 828.552 397.59 829.535 399.468 828.577C401.346 827.619 401.875 824.948 401.888 822.717C401.935 818.06 401.233 813.426 399.808 808.993C399.619 808.388 391.604 807.922 390.646 807.733L380.93 806.473C379.09 806.233 375.12 804.847 373.671 806.384C372.222 807.922 373.104 812.37 373.104 814.198Z" fill="#009877"/>
<path d="M431.087 782.742C431.499 785.012 432.167 787.227 433.079 789.346C434.427 792.774 436.154 796.416 439.455 798.079C442.455 799.579 446.135 799.037 449.184 797.613C450.457 797.086 451.573 796.239 452.423 795.155C453.407 793.441 453.846 791.467 453.683 789.497C453.683 784.62 453.394 779.579 451.163 775.244C449.247 771.463 445.908 768.212 445.857 764.028L434.377 766.246C433.762 766.305 433.177 766.536 432.688 766.914C432.324 767.297 432.072 767.772 431.957 768.287C430.731 773.004 430.436 777.913 431.087 782.742V782.742Z" fill="#009877"/>
<path d="M293.987 663.021C293.508 667.079 293.71 671.426 295.827 674.93C297.944 678.433 302.405 680.752 306.262 679.353C306.459 679.303 306.645 679.213 306.807 679.09C306.969 678.966 307.105 678.812 307.207 678.635C307.31 678.209 307.251 677.76 307.043 677.375C305.341 672.831 305.481 667.802 307.434 663.361C307.686 662.781 308.228 662.101 308.82 662.327C309.068 662.453 309.267 662.657 309.387 662.907C309.997 663.963 310.303 665.167 310.269 666.385C310.091 667.49 310.057 668.612 310.168 669.725C310.408 670.809 311.567 671.83 312.575 671.363C312.867 671.184 313.119 670.948 313.316 670.668C313.513 670.389 313.651 670.072 313.722 669.738C316.533 661.609 315.26 652.725 313.974 644.218C313.985 644.023 313.953 643.827 313.88 643.646C313.807 643.464 313.695 643.301 313.552 643.168C313.409 643.034 313.238 642.934 313.052 642.874C312.866 642.813 312.669 642.795 312.475 642.819C306.526 642.227 303.275 640.803 299.872 646.335C296.949 650.998 293.987 657.413 293.987 663.021Z" fill="#009877"/>
<path d="M363.527 642.34C361.762 649.674 359.985 657.097 359.872 664.633C359.903 669.327 360.257 674.014 360.931 678.659L362.254 689.573C362.708 693.253 363.149 696.92 363.791 700.562C364.201 702.439 364.425 704.351 364.459 706.271C364.336 708.164 364.036 710.042 363.565 711.879C362.772 715.738 362.329 719.661 362.241 723.599C362.103 729.9 362.884 736.202 363.376 742.503C364.357 755.059 364.209 767.679 362.934 780.209C362.426 783.591 363.16 787.043 365.001 789.925C365.748 790.834 366.364 791.844 366.829 792.925C367.774 795.811 365.568 798.697 365.001 801.658C364.638 803.967 365.207 806.326 366.582 808.217C367.958 810.107 370.027 811.374 372.336 811.74C382.418 812.937 392.777 812.395 401.863 817.008C402.821 814.21 400.729 811.034 401.687 808.186C402.291 806.422 403.955 805.275 405.089 803.788C406.613 801.522 407.372 798.828 407.257 796.1C407.301 792.54 406.668 789.003 405.392 785.678C404.32 782.906 402.783 780.171 402.871 777.197C402.871 775.735 403.388 774.198 402.796 772.849C402.389 772.075 401.837 771.386 401.17 770.82C397.403 766.694 395.089 761.45 394.579 755.886C394.087 750.365 394.265 744.805 395.108 739.327C395.726 734.11 396.557 728.602 399.872 724.532C398.335 712.189 399.238 699.665 402.531 687.67C402.859 686.561 403.375 685.276 404.509 685.011C404.96 684.965 405.415 685.028 405.836 685.194C406.257 685.361 406.632 685.627 406.929 685.969C408.908 687.821 409.853 690.506 410.71 693.076C411.655 695.862 412.613 698.836 411.894 701.684C411.592 702.944 410.987 704.053 410.634 705.263C409.868 707.694 410.002 710.32 411.012 712.661C411.505 713.516 411.814 714.464 411.92 715.446C411.803 716.288 411.547 717.106 411.164 717.865C410.696 719.357 410.548 720.929 410.728 722.482C410.908 724.034 411.413 725.531 412.209 726.876C413.816 729.552 415.798 731.984 418.095 734.097C416.997 738.934 417.281 743.982 418.914 748.665C419.032 748.876 419.107 749.108 419.135 749.348C419.163 749.588 419.144 749.832 419.078 750.064C418.851 750.543 418.271 750.719 417.818 751.06C416.557 752.093 417.339 754.046 418.183 755.395C420.497 759.096 423.053 762.641 425.833 766.006C428.353 769.018 428.126 774.828 431.882 775.912C433.46 776.252 435.092 776.252 436.671 775.912C440.376 775.344 444.509 774.273 446.324 770.997C447.068 769.648 447.37 768.01 448.529 767.002C449.689 765.994 451.188 765.817 451.831 764.607C452.474 763.397 451.756 761.81 451.97 760.411C452.184 759.012 453.406 757.89 453.797 756.416C454.73 753.013 450.76 750.215 450.218 746.737C449.437 741.696 455.788 737.916 455.524 732.875C454.969 721.923 454.616 710.921 454.049 699.97C453.337 690.16 453.236 680.316 453.747 670.493C454.188 664.381 455.007 657.979 452.764 652.295C449.538 644.28 440.64 639.781 432.033 638.924C423.426 638.067 414.843 640.109 406.312 641.445C392.152 643.627 377.765 643.928 363.527 642.34V642.34Z" fill="#3F3D56"/>
<path d="M389.109 521.887C400.259 521.887 409.298 512.848 409.298 501.698C409.298 490.548 400.259 481.509 389.109 481.509C377.959 481.509 368.92 490.548 368.92 501.698C368.92 512.848 377.959 521.887 389.109 521.887Z" fill="#FBBEBE"/>
<path d="M380.892 525.655C380.206 527.252 379.053 528.604 377.584 529.533C376.116 530.462 374.4 530.924 372.663 530.86C371.932 533.884 373.684 536.934 375.688 539.316C379.848 544.158 385.225 547.802 391.264 549.873C397.303 551.944 403.785 552.368 410.041 551.099C412.476 550.663 414.786 549.699 416.809 548.276C419.536 545.999 421.367 542.828 421.976 539.328C422.556 535.852 422.721 532.32 422.467 528.805C422.538 528.111 422.34 527.417 421.913 526.865C421.409 526.474 420.786 526.27 420.149 526.285C415.889 525.907 411.44 525.743 407.697 523.651C403.955 521.559 401.295 516.833 403.098 512.952C402.808 513.557 395.448 513.846 394.478 513.972C391.44 514.401 388.403 514.88 385.379 515.434C383.925 515.514 382.489 515.785 381.107 516.241C379.279 517.186 379.96 516.72 380.388 518.434C381.031 521.055 381.976 522.933 380.892 525.655Z" fill="#FBBEBE"/>
<path d="M396.254 537.93C393.535 537.961 390.823 537.661 388.176 537.035C385.504 536.411 383.149 534.839 381.548 532.611C380.615 531.2 380.01 529.423 378.523 528.629C376.091 527.369 373.318 529.499 371.377 531.452C369.61 533.378 367.563 535.027 365.303 536.342C362.606 537.766 359.456 538.27 356.91 539.946C354.921 541.449 353.215 543.292 351.869 545.39L334.012 569.713C326.841 579.492 320.603 589.99 314.213 600.311C308.681 609.246 305.782 619.53 301.611 629.17C301.281 629.76 301.144 630.439 301.22 631.111C301.372 631.766 302.166 632.296 302.72 631.918C300.842 633.783 302.493 636.959 302.052 639.58C301.551 641.414 300.505 643.053 299.053 644.281C301.827 643.919 304.643 644.051 307.37 644.671C310.189 645.47 312.85 646.749 315.234 648.452C316.759 648.213 316.62 645.503 317.755 644.495C318.435 643.902 319.443 643.978 320.338 643.802C323.703 643.146 325.039 639.101 327.622 636.82C329.777 634.917 332.827 634.3 335.108 632.51C338.813 629.599 339.607 624.419 341.548 620.122C343.199 616.48 345.795 613.304 347.244 609.574C348.189 607.154 348.643 604.533 349.991 602.302C352.146 598.698 356.204 596.782 360.073 595.056C362.518 593.96 365.114 592.825 367.748 593.002C367.609 598.862 366.866 604.634 368.139 610.355C368.58 612.372 369.197 614.338 369.727 616.341C372.134 625.365 372.701 634.766 372.814 644.066C378.604 642.741 384.518 642.032 390.457 641.949C395.133 641.811 399.796 642.415 404.471 642.327C410.016 642.226 415.498 641.155 421.043 640.777C426.588 640.399 432.385 640.777 437.288 643.298C436.889 635.311 437.113 627.305 437.955 619.353L439.291 606.827C439.593 603.187 440.153 599.574 440.967 596.014C441.698 593.14 442.757 590.368 443.564 587.507C446.399 577.425 445.882 566.663 445.34 556.165C445.063 550.771 442.984 545.466 440.539 540.664C439.654 538.881 438.643 537.163 437.514 535.523C434.56 531.452 430.623 528.196 426.07 526.059C421.517 523.921 416.497 522.971 411.478 523.298C410.837 523.318 410.205 523.455 409.613 523.702C408.549 524.383 407.718 525.372 407.231 526.537C404.624 531.223 400.841 535.15 396.254 537.93Z" fill="#3F3D56"/>
<path d="M371.352 508.39C371.919 507.13 373.444 506.664 374.377 505.656C376.166 503.74 375.36 500.678 375.637 498.094C376.091 494.314 379.229 491.15 382.82 489.802C386.483 488.627 390.381 488.38 394.162 489.084C395.983 489.217 397.741 489.801 399.279 490.785C399.934 491.264 400.539 491.881 401.157 492.323C402.282 493.003 403.629 493.216 404.91 492.917C406.191 492.618 407.304 491.83 408.012 490.722C403.551 485.353 398.611 479.682 391.831 478.031C389.505 477.557 387.135 477.333 384.761 477.364C381.623 477.301 378.384 477.25 375.486 478.447C371.541 480.073 368.769 483.816 367.345 487.849C366.099 491.936 365.433 496.178 365.366 500.451C365.108 503.302 365.108 506.17 365.366 509.021C365.853 512.914 367.3 516.625 369.575 519.821C369.883 520.317 370.318 520.722 370.836 520.993C376.582 523.513 370.886 509.436 371.352 508.39Z" fill="#3F3D56"/>
<path d="M407.357 487.609C406.664 481.673 402.43 476.771 397.931 472.826C394.304 469.406 389.985 466.806 385.265 465.202C380.514 463.803 375.045 464.105 370.974 466.941C367.698 469.222 365.618 472.851 364.018 476.506C361.915 480.819 360.874 485.572 360.981 490.369C361.296 495.132 363.614 499.959 367.748 502.366C369.235 500.173 371.819 499.039 374.301 498.144C385.122 494.039 396.157 490.522 407.357 487.609V487.609Z" fill="#FED253"/>
<path opacity="0.1" d="M369.134 485.139C369.538 485.139 369.802 485.555 370.004 485.895C371.03 487.494 371.911 489.181 372.638 490.936C371.163 491.251 368.63 491.604 367.899 490.306C367.509 489.65 367.975 485.076 369.134 485.139Z" fill="black"/>
<path opacity="0.1" d="M397.855 482.291C397.552 482.581 397.2 481.988 397.2 481.56V476.67C397.191 476.534 397.222 476.399 397.288 476.28C397.34 476.22 397.404 476.171 397.475 476.136C397.547 476.102 397.624 476.082 397.704 476.078C398.724 475.964 399.569 476.834 400.224 477.666C401.219 479.014 402.084 480.453 402.808 481.963L397.477 481.799" fill="black"/>
<path d="M464.383 563.26C465.543 562.159 466.781 561.144 468.088 560.223C471.579 557.892 475.8 556.972 479.72 555.485C483.639 553.998 487.621 551.59 489.146 547.684C489.91 545.241 490.159 542.666 489.877 540.122C489.914 539.057 489.725 537.997 489.323 537.01C488.843 536.137 488.16 535.394 487.332 534.842C482.013 530.91 474.881 530.595 468.277 530.998C453.718 531.901 439.448 535.463 426.173 541.509C425.47 541.741 424.855 542.18 424.408 542.769C424.15 543.315 424.033 543.917 424.068 544.521C423.833 548.237 424.317 551.964 425.492 555.497C427.231 559.984 430.81 563.6 432.31 568.175C432.99 570.229 433.217 572.41 433.81 574.476C434.295 576.611 435.558 578.488 437.351 579.744C442.329 582.718 447.029 578.723 450.482 575.623L464.383 563.26Z" fill="#3F3D56"/>
<path d="M399.191 580.715L392.801 566.777C391.865 564.845 391.056 562.854 390.382 560.816C389.651 558.384 389.298 555.863 388.617 553.418C386.374 545.277 380.716 538.497 377.956 530.52C377.781 529.8 377.426 529.136 376.922 528.592C376.52 528.307 376.059 528.114 375.573 528.027C375.088 527.94 374.589 527.96 374.112 528.088C370.256 528.756 367.244 531.692 363.715 533.355C362.077 534.112 360.313 534.616 358.674 535.485C357.855 535.873 357.13 536.433 356.547 537.127C355.964 537.82 355.538 538.632 355.297 539.505C354.906 541.434 355.864 543.286 356.671 545.164C360.098 552.902 360.88 561.547 361.031 570.016C361.144 575.712 360.855 581.824 357.49 586.399C351.025 595.22 355.158 608.175 357.578 618.85C357.868 620.11 358.208 621.471 358.41 622.807C358.623 624.478 358.72 626.163 358.7 627.848C358.7 633.506 358.384 639.341 356.015 644.47C358.354 645.715 360.932 646.445 363.577 646.612C370.894 647.545 378.241 648.2 385.618 648.578C387.929 648.796 390.26 648.677 392.537 648.226C395.241 647.495 397.624 645.884 399.311 643.647C400.998 641.411 401.891 638.676 401.85 635.875C402.253 639.366 402.997 643.159 405.53 645.579C408.063 647.999 411.755 648.364 415.196 648.553C424.906 649.068 434.641 648.794 444.307 647.734C444.924 647.706 445.531 647.565 446.097 647.318C447.962 646.386 448.063 643.815 447.911 641.748C447.634 637.879 447.344 634.01 446.878 630.166C446.483 627.716 446.28 625.238 446.273 622.756C446.465 620.203 446.887 617.672 447.533 615.195C449.222 607.331 450.558 599.303 449.991 591.25C449.767 589.289 449.687 587.313 449.751 585.34C450.079 580.891 452.423 576.657 451.982 572.234C450.722 559.228 449.701 545.882 446.071 533.33C445.416 531.087 444.584 528.68 442.631 527.395C440.11 525.706 436.569 526.588 433.683 525.517C432.329 524.887 431.042 524.122 429.84 523.236C427.228 521.603 424.235 520.681 421.157 520.564C418.838 520.476 416.254 520.993 414.855 522.858C414.208 523.908 413.779 525.078 413.595 526.298C411.768 533.986 409.625 541.585 407.483 549.184L405.429 556.468L399.922 576.027C399.38 578.106 399.745 578.749 399.191 580.715Z" fill="#009877"/>
<path d="M431.415 504.408L553.317 632.51V643.373H498.964L407.357 523.815" fill="#F1C0C0"/>
<path opacity="0.1" d="M431.415 504.408L553.317 632.51V643.373H498.964L407.357 523.815" fill="black"/>
<path opacity="0.1" d="M409.298 522.126L409.689 522.265L499.745 632.51H553.317V643.373H498.964L407.357 523.815L409.298 522.126Z" fill="black"/>
<path d="M423.325 524.824C418.914 526.752 414.012 529.222 412.688 533.86C412.427 534.673 412.371 535.539 412.525 536.38C412.847 537.369 413.462 538.237 414.287 538.869C415.113 539.501 416.111 539.868 417.15 539.921C419.225 539.972 421.288 539.594 423.211 538.812L449.235 530.217C449.941 529.991 450.747 529.65 450.924 528.957C450.969 528.521 450.881 528.082 450.672 527.697C449.865 525.731 449.071 521.711 447.383 520.337C445.996 519.228 443.249 519.619 441.573 519.644C435.121 519.695 429.059 522.303 423.325 524.824Z" fill="#009877"/>
<path d="M446.525 531.238C450.91 531.225 455.269 531.902 459.443 533.242C463.636 534.603 467.349 537.14 470.142 540.551C470.955 541.505 471.534 542.636 471.831 543.853C472.083 545.113 476.191 545.87 475.284 546.727C478.044 546.285 477.388 547.583 480.186 547.558C482.984 547.533 486.008 546.815 487.685 544.584C488.849 542.752 489.368 540.583 489.159 538.422C489.196 536.925 488.912 535.439 488.327 534.061C487.067 531.415 484.169 529.991 481.497 528.768L458.989 518.472C457.683 517.778 456.282 517.281 454.83 516.998C453.609 516.882 452.378 516.912 451.163 517.086L440.968 518.258C443.197 519.701 445.013 521.7 446.235 524.057C447.457 526.415 448.043 529.051 447.937 531.705" fill="#3F3D56"/>
</g>
<defs>
<clipPath id="clip0">
<rect width="1484.33" height="913" fill="white"/>
</clipPath>
</defs>
</svg>
